<svg xmlns="http://www.w3.org/2000/svg" viewBox="0 0 1722.81 1414.24"><defs><style>.cls-1{font-size:96px;font-family:Roboto-Regular, Roboto;}.cls-1,.cls-9{fill:#fff;}.cls-2{letter-spacing:-0.01em;}.cls-3{letter-spacing:-0.01em;}.cls-4{letter-spacing:-0.01em;}.cls-5,.cls-6,.cls-8{fill:none;}.cls-5,.cls-6,.cls-7{stroke:#fff;}.cls-5,.cls-6,.cls-7,.cls-8{stroke-miterlimit:10;}.cls-5,.cls-7,.cls-8{stroke-width:6px;}.cls-6{stroke-width:2px;}.cls-8{stroke:#000;}.cls-10{fill:#3b99fc;}</style></defs><title>shirtdesign</title><g id="Layer_9" data-name="Layer 9"><text class="cls-1" transform="translate(420.18 1199.8)">H<tspan class="cls-2" x="68.44" y="0">a</tspan><tspan class="cls-3" x="119.95" y="0">v</tspan><tspan x="165.84" y="0">e </tspan><tspan class="cls-2" x="240.47" y="0">y</tspan><tspan x="285.19" y="0">ou connected </tspan><tspan class="cls-2" x="48.94" y="115.2">y</tspan><tspan x="93.66" y="115.2">our wallet </tspan><tspan class="cls-4" x="534.52" y="115.2">t</tspan><tspan x="564.94" y="115.2">od</tspan><tspan class="cls-2" x="673.83" y="115.2">a</tspan><tspan x="725.34" y="115.2">y?</tspan></text></g><g id="Layer_2" data-name="Layer 2"><path class="cls-5" d="M1486.5,304.15V84.27a52.78,52.78,0,0,0-52.77-52.77H268.27A52.78,52.78,0,0,0,215.5,84.27V896H74v12l141,17H1368.7" transform="translate(-71 -28.5)"/><polyline class="cls-6" points="1291.73 808.5 199 808.5 199 68.5 1369 68.5 1369 447.38"/><line class="cls-7" x1="145" y1="867.5" x2="1282.95" y2="867.5"/><path class="cls-8" d="M1486.5,304.15" transform="translate(-71 -28.5)"/></g><g id="Layer_3" data-name="Layer 3"><rect class="cls-5" x="1409" y="307" width="326" height="662" rx="52.65" transform="translate(97.3 -343.31) rotate(12.08)"/><path class="cls-6" d="M1743.34,355.09l-27.23-5.83-1.7,7.93a16.88,16.88,0,0,1-20.05,13L1571.91,344a16.89,16.89,0,0,1-13-20.05l1.7-7.93-30.17-6.45a34.15,34.15,0,0,0-40.54,26.25L1374.48,875.27a34.15,34.15,0,0,0,26.25,40.54l212.88,45.55a34.15,34.15,0,0,0,40.54-26.25l115.44-539.48A34.15,34.15,0,0,0,1743.34,355.09Z" transform="translate(-71 -28.5)"/></g><g id="Layer_6" data-name="Layer 6"><rect class="cls-9" x="1588.66" y="602.54" width="18.96" height="35.55" transform="translate(94.17 -349.17) rotate(12.08)"/><rect class="cls-9" x="1601.56" y="643.21" width="35.55" height="16.59" transform="translate(101.17 -352.91) rotate(12.08)"/><rect class="cls-9" x="1537.34" y="591.34" width="18.96" height="16.59" transform="translate(88.71 -338.89) rotate(12.08)"/><path class="cls-9" d="M1512.11,526l22.37,4.79-4.79,22.36-22.36-4.78,4.78-22.37m-13.06-20.18-11.9,55.61,55.61,11.9,11.9-55.61-55.61-11.9Z" transform="translate(-71 -28.5)"/><path class="cls-9" d="M1658.1,557.23l22.36,4.78-4.78,22.37-22.37-4.79,4.79-22.36M1645,537.05l-11.9,55.61,55.61,11.9,11.9-55.61L1645,537.05Z" transform="translate(-71 -28.5)"/><path class="cls-9" d="M1481.37,669.66l22.37,4.78L1499,696.81,1476.58,692l4.79-22.36m-13.07-20.18-11.9,55.61L1512,717l11.9-55.61-55.62-11.9Z" transform="translate(-71 -28.5)"/><path class="cls-9" d="M1627.36,700.9l22.36,4.78-4.78,22.37-22.37-4.79,4.79-22.36m-13.07-20.19-11.9,55.62,55.61,11.9,11.9-55.61-55.61-11.91Z" transform="translate(-71 -28.5)"/><rect class="cls-9" x="1584.27" y="548.27" width="54.5" height="18.96" transform="translate(657.92 1988.39) rotate(-77.92)"/><rect class="cls-9" x="1558.3" y="579.06" width="54.5" height="18.96" transform="translate(607.27 1987.34) rotate(-77.92)"/><rect class="cls-9" x="1646.13" y="642.15" width="37.91" height="21.33" transform="translate(607.32 2115.95) rotate(-77.92)"/><rect class="cls-9" x="1518.05" y="639.09" width="73.46" height="16.59" transform="translate(525.4 2003.78) rotate(-77.92)"/><rect class="cls-9" x="1533.56" y="689.13" width="56.87" height="18.96" transform="translate(481.01 2051.34) rotate(-77.92)"/><rect class="cls-9" x="1568.02" y="662.97" width="37.91" height="18.96" transform="translate(526.35 2055.09) rotate(-77.92)"/><rect class="cls-9" x="1492.18" y="570.76" width="16.59" height="37.91" transform="translate(538.84 1905.08) rotate(-77.92)"/><rect class="cls-9" x="1483.31" y="606.68" width="18.96" height="37.91" transform="translate(497.64 1925.97) rotate(-77.92)"/><rect class="cls-9" x="1506.98" y="593.54" width="18.96" height="35.55" transform="translate(530.36 1937.78) rotate(-77.92)"/><rect class="cls-9" x="1617.31" y="580.95" width="16.59" height="71.09" transform="translate(611.61 2048.62) rotate(-77.92)"/></g><g id="Layer_7" data-name="Layer 7"><g id="Page-1"><g id="walletconnect-logo-alt"><path id="WalletConnect" class="cls-10" d="M614.83,299.73c131.27-128.52,344.11-128.52,475.38,0L1106,315.2a16.22,16.22,0,0,1,0,23.27l-54,52.92a8.53,8.53,0,0,1-11.88,0l-21.74-21.29c-91.58-89.66-240.06-89.66-331.64,0l-23.28,22.8a8.54,8.54,0,0,1-11.89,0l-54-52.92a16.22,16.22,0,0,1,0-23.27ZM1202,409.17l48.1,47.09a16.22,16.22,0,0,1,0,23.27L1033.19,691.88a17.06,17.06,0,0,1-23.77,0h0L855.49,541.17a4.28,4.28,0,0,0-5.94,0h0L695.62,691.88a17.06,17.06,0,0,1-23.77,0h0L455,479.53a16.22,16.22,0,0,1,0-23.27l48.1-47.1a17.08,17.08,0,0,1,23.77,0L680.76,559.88a4.27,4.27,0,0,0,6,0h0L840.63,409.16a17.08,17.08,0,0,1,23.77,0h0l153.94,150.72a4.26,4.26,0,0,0,5.94,0l153.93-150.71A17.06,17.06,0,0,1,1202,409.17Z" transform="translate(-71 -28.5)"/></g></g></g></svg>